<?xml version="1.0" standalone="no"?>
<!DOCTYPE svg PUBLIC "-//W3C//DTD SVG 20010904//EN"
 "http://www.w3.org/TR/2001/REC-SVG-20010904/DTD/svg10.dtd">
<svg version="1.0" xmlns="http://www.w3.org/2000/svg"
 width="16.000000pt" height="16.000000pt" viewBox="0 0 16.000000 16.000000"
 preserveAspectRatio="xMidYMid meet">
<metadata>
Created by potrace 1.11, written by Peter Selinger 2001-2013
</metadata>
<g transform="translate(0.000000,16.000000) scale(0.006250,-0.006250)"
fill="#000000" stroke="none">
<path d="M1158 2356 c-152 -50 -256 -182 -266 -341 -5 -73 10 -144 47 -230 10
-22 26 -60 36 -85 28 -66 136 -273 201 -386 32 -55 67 -116 78 -136 12 -21 23
-38 26 -38 6 0 171 292 235 415 64 124 122 263 141 337 76 297 -204 559 -498
464z m227 -167 c172 -89 173 -332 1 -421 -57 -30 -156 -30 -213 0 -134 70
-170 256 -70 364 79 85 185 106 282 57z"/>
<path d="M1675 1542 c-4 -15 -12 -33 -17 -40 -6 -7 -21 -34 -33 -59 l-21 -46
71 -71 c42 -43 82 -95 100 -131 16 -33 30 -62 31 -65 0 -3 3 -12 7 -20 29 -73
34 -216 9 -310 -40 -158 -153 -296 -294 -364 -82 -39 -93 -43 -177 -55 -210
-31 -429 73 -547 260 -15 24 -40 78 -55 121 -23 67 -26 89 -24 185 3 161 49
268 165 385 l66 66 -38 78 c-20 42 -40 79 -42 82 -9 8 -65 -32 -122 -88 -70
-68 -135 -167 -173 -261 -41 -102 -46 -136 -46 -279 1 -169 26 -260 113 -400
35 -57 172 -198 215 -221 139 -77 171 -90 278 -112 64 -14 219 -15 269 -2 14
3 34 8 45 9 66 11 183 64 256 118 207 149 315 356 319 614 3 198 -74 380 -220
524 -114 112 -126 119 -135 82z"/>
</g>
</svg>
